<svg width="258" height="39" viewBox="0 0 258 39" fill="none" xmlns="http://www.w3.org/2000/svg">
<path d="M0.632 4.016C1.464 4.048 2.552 4.08 3.896 4.112C5.24 4.144 6.584 4.16 7.928 4.16C9.464 4.16 10.952 4.144 12.392 4.112C13.832 4.08 14.856 4.064 15.464 4.064C19.432 4.064 22.392 4.768 24.344 6.176C26.328 7.584 27.32 9.392 27.32 11.6C27.32 12.72 26.984 13.856 26.312 15.008C25.64 16.16 24.6 17.184 23.192 18.08C21.784 18.976 19.96 19.632 17.72 20.048V20.144C20.728 20.368 23.112 20.912 24.872 21.776C26.632 22.64 27.896 23.68 28.664 24.896C29.432 26.112 29.816 27.376 29.816 28.688C29.816 30.704 29.288 32.4 28.232 33.776C27.176 35.152 25.656 36.208 23.672 36.944C21.688 37.648 19.32 38 16.568 38C15.8 38 14.696 37.984 13.256 37.952C11.816 37.888 10.072 37.856 8.024 37.856C6.616 37.856 5.24 37.872 3.896 37.904C2.552 37.904 1.464 37.936 0.632 38V37.04C1.656 36.976 2.424 36.848 2.936 36.656C3.448 36.464 3.784 36.08 3.944 35.504C4.136 34.928 4.232 34.064 4.232 32.912V9.104C4.232 7.92 4.136 7.056 3.944 6.512C3.784 5.936 3.432 5.552 2.888 5.36C2.376 5.136 1.624 5.008 0.632 4.976V4.016ZM14.84 4.976C13.592 4.976 12.776 5.248 12.392 5.792C12.04 6.336 11.864 7.44 11.864 9.104V32.912C11.864 34.032 11.944 34.88 12.104 35.456C12.296 36.032 12.616 36.416 13.064 36.608C13.544 36.8 14.248 36.896 15.176 36.896C17.48 36.896 19.16 36.176 20.216 34.736C21.304 33.264 21.848 31.184 21.848 28.496C21.848 26.032 21.224 24.128 19.976 22.784C18.76 21.44 16.728 20.768 13.88 20.768H9.8C9.8 20.768 9.8 20.64 9.8 20.384C9.8 20.096 9.8 19.952 9.8 19.952H13.928C15.432 19.952 16.584 19.6 17.384 18.896C18.184 18.16 18.744 17.2 19.064 16.016C19.384 14.8 19.544 13.504 19.544 12.128C19.544 9.76 19.176 7.984 18.44 6.8C17.704 5.584 16.504 4.976 14.84 4.976ZM48.8203 12.512C49.8443 12.512 50.6763 12.736 51.3163 13.184C51.9563 13.6 52.4203 14.144 52.7083 14.816C53.0283 15.488 53.1883 16.192 53.1883 16.928C53.1883 18.112 52.8363 19.088 52.1323 19.856C51.4603 20.592 50.5643 20.96 49.4443 20.96C48.3243 20.96 47.4443 20.688 46.8043 20.144C46.1963 19.568 45.8923 18.816 45.8923 17.888C45.8923 16.992 46.0843 16.256 46.4683 15.68C46.8843 15.072 47.3963 14.56 48.0043 14.144C47.5563 14.016 47.1083 14.032 46.6603 14.192C46.0523 14.288 45.4763 14.544 44.9323 14.96C44.3883 15.344 43.9243 15.84 43.5403 16.448C43.1563 17.024 42.8523 17.664 42.6283 18.368C42.4043 19.04 42.2923 19.696 42.2923 20.336V33.056C42.2923 34.592 42.6603 35.632 43.3963 36.176C44.1643 36.72 45.3003 36.992 46.8043 36.992V38C46.0683 37.968 44.9963 37.936 43.5883 37.904C42.1803 37.84 40.7083 37.808 39.1723 37.808C37.8923 37.808 36.5963 37.84 35.2843 37.904C33.9723 37.936 32.9803 37.968 32.3083 38V36.992C33.4283 36.992 34.2123 36.752 34.6603 36.272C35.1403 35.792 35.3803 34.88 35.3803 33.536V18.416C35.3803 16.976 35.1563 15.92 34.7083 15.248C34.2923 14.544 33.4923 14.192 32.3083 14.192V13.184C33.3323 13.28 34.3243 13.328 35.2843 13.328C36.6283 13.328 37.8763 13.28 39.0283 13.184C40.2123 13.056 41.3003 12.88 42.2923 12.656V17.12C42.6763 16.256 43.1883 15.472 43.8282 14.768C44.4683 14.064 45.2043 13.52 46.0363 13.136C46.8683 12.72 47.7963 12.512 48.8203 12.512ZM78.6185 12.656V32.768C78.6185 34.208 78.8425 35.28 79.2905 35.984C79.7385 36.656 80.5385 36.992 81.6905 36.992V38C80.6985 37.904 79.7065 37.856 78.7145 37.856C77.3705 37.856 76.1225 37.904 74.9705 38C73.8185 38.096 72.7305 38.272 71.7065 38.528V34.208C70.9385 35.808 69.8665 36.96 68.4905 37.664C67.1465 38.336 65.6425 38.672 63.9785 38.672C62.6345 38.672 61.5465 38.496 60.7145 38.144C59.8825 37.792 59.2265 37.344 58.7465 36.8C58.2025 36.192 57.8185 35.392 57.5945 34.4C57.3705 33.408 57.2585 32.128 57.2585 30.56V18.416C57.2585 16.976 57.0345 15.92 56.5865 15.248C56.1705 14.544 55.3705 14.192 54.1865 14.192V13.184C55.2105 13.28 56.2025 13.328 57.1625 13.328C58.5065 13.328 59.7545 13.28 60.9065 13.184C62.0905 13.056 63.1785 12.88 64.1705 12.656V32.528C64.1705 33.328 64.2345 34.032 64.3625 34.64C64.5225 35.248 64.8105 35.728 65.2265 36.08C65.6425 36.4 66.2505 36.56 67.0505 36.56C67.9145 36.56 68.6825 36.32 69.3545 35.84C70.0585 35.36 70.6185 34.704 71.0345 33.872C71.4825 33.008 71.7065 32.048 71.7065 30.992V18.416C71.7065 16.976 71.4825 15.92 71.0345 15.248C70.6185 14.544 69.8185 14.192 68.6345 14.192V13.184C69.6585 13.28 70.6505 13.328 71.6105 13.328C72.9545 13.328 74.2025 13.28 75.3545 13.184C76.5385 13.056 77.6265 12.88 78.6185 12.656ZM101.68 12.512C103.024 12.512 104.112 12.688 104.944 13.04C105.808 13.36 106.48 13.808 106.96 14.384C107.472 14.992 107.84 15.776 108.064 16.736C108.32 17.696 108.448 18.992 108.448 20.624V33.536C108.448 34.88 108.672 35.792 109.12 36.272C109.6 36.752 110.4 36.992 111.52 36.992V38C110.912 37.968 110 37.936 108.784 37.904C107.568 37.84 106.368 37.808 105.184 37.808C103.968 37.808 102.768 37.84 101.584 37.904C100.432 37.936 99.5519 37.968 98.9439 38V36.992C99.9039 36.992 100.576 36.752 100.96 36.272C101.344 35.792 101.536 34.88 101.536 33.536V18.608C101.536 17.808 101.456 17.12 101.296 16.544C101.136 15.936 100.848 15.472 100.432 15.152C100.016 14.8 99.3919 14.624 98.5599 14.624C97.6959 14.624 96.8959 14.864 96.1599 15.344C95.4559 15.824 94.8799 16.496 94.4319 17.36C94.0159 18.192 93.8079 19.136 93.8079 20.192V33.536C93.8079 34.88 93.9999 35.792 94.3839 36.272C94.7999 36.752 95.4719 36.992 96.3999 36.992V38C95.8239 37.968 94.9759 37.936 93.8559 37.904C92.7679 37.84 91.6319 37.808 90.4479 37.808C89.2319 37.808 87.9839 37.84 86.7039 37.904C85.4239 37.936 84.4639 37.968 83.8239 38V36.992C84.9439 36.992 85.7279 36.752 86.1759 36.272C86.6559 35.792 86.8959 34.88 86.8959 33.536V18.416C86.8959 16.976 86.6719 15.92 86.2239 15.248C85.8079 14.544 85.0079 14.192 83.8239 14.192V13.184C84.8479 13.28 85.8399 13.328 86.7999 13.328C88.1439 13.328 89.3919 13.28 90.5439 13.184C91.7279 13.056 92.8159 12.88 93.8079 12.656V16.976C94.6079 15.344 95.6959 14.192 97.0719 13.52C98.4479 12.848 99.9839 12.512 101.68 12.512ZM125.692 12.512C128.028 12.512 130.076 12.944 131.836 13.808C133.596 14.672 134.972 16.064 135.964 17.984C136.956 19.904 137.452 22.448 137.452 25.616C137.452 28.784 136.956 31.328 135.964 33.248C134.972 35.136 133.596 36.512 131.836 37.376C130.076 38.24 128.028 38.672 125.692 38.672C123.42 38.672 121.388 38.24 119.596 37.376C117.836 36.512 116.444 35.136 115.42 33.248C114.428 31.328 113.932 28.784 113.932 25.616C113.932 22.448 114.428 19.904 115.42 17.984C116.444 16.064 117.836 14.672 119.596 13.808C121.388 12.944 123.42 12.512 125.692 12.512ZM125.692 13.472C124.412 13.472 123.34 14.432 122.476 16.352C121.612 18.24 121.18 21.328 121.18 25.616C121.18 29.904 121.612 32.992 122.476 34.88C123.34 36.768 124.412 37.712 125.692 37.712C127.004 37.712 128.076 36.768 128.908 34.88C129.772 32.992 130.204 29.904 130.204 25.616C130.204 21.328 129.772 18.24 128.908 16.352C128.076 14.432 127.004 13.472 125.692 13.472ZM164.132 3.392C166.02 3.392 167.476 3.6 168.5 4.016C169.524 4.4 170.404 4.816 171.14 5.264C171.524 5.488 171.828 5.664 172.052 5.792C172.308 5.888 172.548 5.936 172.772 5.936C173.092 5.936 173.316 5.76 173.444 5.408C173.604 5.056 173.732 4.528 173.828 3.824H174.932C174.9 4.432 174.852 5.168 174.788 6.032C174.756 6.864 174.724 7.968 174.692 9.344C174.692 10.72 174.692 12.528 174.692 14.768H173.588C173.46 13.104 173.076 11.488 172.436 9.92C171.796 8.352 170.884 7.072 169.7 6.08C168.548 5.056 167.124 4.544 165.428 4.544C163.892 4.544 162.628 4.976 161.636 5.84C160.644 6.704 160.148 7.904 160.148 9.44C160.148 10.72 160.468 11.824 161.108 12.752C161.748 13.648 162.676 14.528 163.892 15.392C165.14 16.256 166.644 17.296 168.404 18.512C169.94 19.504 171.316 20.496 172.532 21.488C173.748 22.48 174.724 23.6 175.46 24.848C176.196 26.096 176.564 27.584 176.564 29.312C176.564 31.424 176.004 33.168 174.884 34.544C173.796 35.92 172.356 36.96 170.564 37.664C168.772 38.336 166.804 38.672 164.66 38.672C162.676 38.672 161.092 38.48 159.908 38.096C158.724 37.712 157.732 37.312 156.932 36.896C156.228 36.448 155.684 36.224 155.3 36.224C154.98 36.224 154.74 36.4 154.58 36.752C154.452 37.104 154.34 37.632 154.244 38.336H153.14C153.204 37.568 153.236 36.672 153.236 35.648C153.268 34.624 153.284 33.296 153.284 31.664C153.316 30 153.332 27.904 153.332 25.376H154.436C154.564 27.488 154.916 29.472 155.492 31.328C156.1 33.152 157.012 34.624 158.228 35.744C159.476 36.864 161.124 37.424 163.172 37.424C164.292 37.424 165.284 37.232 166.148 36.848C167.044 36.432 167.764 35.824 168.308 35.024C168.852 34.224 169.124 33.232 169.124 32.048C169.124 30.704 168.804 29.536 168.164 28.544C167.556 27.552 166.708 26.624 165.62 25.76C164.564 24.896 163.332 24.016 161.924 23.12C160.42 22.128 159.012 21.136 157.7 20.144C156.388 19.152 155.332 18.016 154.532 16.736C153.764 15.456 153.38 13.936 153.38 12.176C153.38 10.16 153.876 8.512 154.868 7.232C155.892 5.92 157.22 4.96 158.852 4.352C160.516 3.712 162.276 3.392 164.132 3.392ZM185.923 0.799998C187.267 0.799998 188.323 1.136 189.091 1.808C189.891 2.448 190.291 3.344 190.291 4.496C190.291 5.648 189.891 6.56 189.091 7.232C188.323 7.872 187.267 8.192 185.923 8.192C184.579 8.192 183.507 7.872 182.707 7.232C181.939 6.56 181.555 5.648 181.555 4.496C181.555 3.344 181.939 2.448 182.707 1.808C183.507 1.136 184.579 0.799998 185.923 0.799998ZM189.667 12.656V33.536C189.667 34.88 189.891 35.792 190.339 36.272C190.819 36.752 191.619 36.992 192.739 36.992V38C192.163 37.968 191.267 37.936 190.051 37.904C188.835 37.84 187.603 37.808 186.355 37.808C185.107 37.808 183.843 37.84 182.563 37.904C181.283 37.936 180.323 37.968 179.683 38V36.992C180.803 36.992 181.587 36.752 182.035 36.272C182.515 35.792 182.755 34.88 182.755 33.536V18.416C182.755 16.976 182.531 15.92 182.083 15.248C181.667 14.544 180.867 14.192 179.683 14.192V13.184C180.707 13.28 181.699 13.328 182.659 13.328C184.003 13.328 185.251 13.28 186.403 13.184C187.587 13.056 188.675 12.88 189.667 12.656ZM204.616 0.415998V33.536C204.616 34.88 204.84 35.792 205.288 36.272C205.768 36.752 206.568 36.992 207.688 36.992V38C207.08 37.968 206.168 37.936 204.952 37.904C203.736 37.84 202.504 37.808 201.256 37.808C200.008 37.808 198.744 37.84 197.464 37.904C196.216 37.936 195.272 37.968 194.632 38V36.992C195.752 36.992 196.536 36.752 196.984 36.272C197.464 35.792 197.704 34.88 197.704 33.536V6.176C197.704 4.736 197.48 3.68 197.032 3.008C196.616 2.304 195.816 1.952 194.632 1.952V0.943999C195.656 1.04 196.648 1.088 197.608 1.088C198.92 1.088 200.168 1.04 201.352 0.943999C202.536 0.815999 203.624 0.639998 204.616 0.415998ZM232.914 13.184V14.144C232.306 14.304 231.73 14.688 231.186 15.296C230.642 15.872 230.114 16.864 229.602 18.272L222.594 38.096C222.082 38.064 221.554 38.048 221.01 38.048C220.498 38.048 219.986 38.064 219.474 38.096L210.93 16.88C210.418 15.632 209.906 14.88 209.394 14.624C208.914 14.336 208.498 14.192 208.146 14.192V13.184C209.17 13.248 210.226 13.312 211.314 13.376C212.434 13.408 213.65 13.424 214.962 13.424C215.954 13.424 216.994 13.408 218.082 13.376C219.202 13.312 220.242 13.248 221.202 13.184V14.192C220.53 14.192 219.922 14.224 219.378 14.288C218.866 14.352 218.514 14.56 218.322 14.912C218.13 15.264 218.162 15.888 218.418 16.784L224.034 31.664L223.554 32.336L227.346 21.824C227.954 20.096 228.21 18.688 228.114 17.6C228.018 16.48 227.666 15.648 227.058 15.104C226.45 14.528 225.634 14.208 224.61 14.144V13.184C225.09 13.216 225.602 13.248 226.146 13.28C226.722 13.28 227.266 13.296 227.778 13.328C228.322 13.328 228.802 13.328 229.218 13.328C229.858 13.328 230.53 13.312 231.234 13.28C231.938 13.248 232.498 13.216 232.914 13.184ZM240.167 38.336C238.727 38.336 237.527 38.064 236.567 37.52C235.607 36.976 234.903 36.256 234.455 35.36C234.007 34.432 233.783 33.424 233.783 32.336C233.783 30.96 234.087 29.84 234.695 28.976C235.335 28.112 236.151 27.408 237.143 26.864C238.135 26.32 239.175 25.872 240.263 25.52C241.383 25.168 242.439 24.832 243.431 24.512C244.455 24.16 245.271 23.76 245.879 23.312C246.519 22.832 246.839 22.224 246.839 21.488V17.744C246.839 16.912 246.695 16.176 246.407 15.536C246.151 14.864 245.735 14.352 245.159 14C244.615 13.648 243.895 13.472 242.999 13.472C242.359 13.472 241.719 13.568 241.079 13.76C240.439 13.92 239.911 14.208 239.495 14.624C240.391 14.944 241.079 15.44 241.559 16.112C242.071 16.752 242.327 17.488 242.327 18.32C242.327 19.408 241.943 20.272 241.175 20.912C240.439 21.552 239.559 21.872 238.535 21.872C237.383 21.872 236.503 21.52 235.895 20.816C235.319 20.08 235.031 19.2 235.031 18.176C235.031 17.248 235.255 16.48 235.703 15.872C236.183 15.264 236.839 14.688 237.671 14.144C238.567 13.632 239.639 13.232 240.887 12.944C242.167 12.656 243.543 12.512 245.015 12.512C246.487 12.512 247.815 12.672 248.999 12.992C250.183 13.28 251.175 13.824 251.975 14.624C252.711 15.36 253.191 16.272 253.415 17.36C253.639 18.416 253.751 19.76 253.751 21.392V34.448C253.751 35.248 253.831 35.808 253.991 36.128C254.151 36.416 254.423 36.56 254.807 36.56C255.095 36.56 255.367 36.48 255.623 36.32C255.911 36.16 256.215 35.968 256.535 35.744L257.015 36.56C256.343 37.136 255.559 37.584 254.663 37.904C253.799 38.192 252.823 38.336 251.735 38.336C250.551 38.336 249.607 38.176 248.903 37.856C248.199 37.504 247.687 37.04 247.367 36.464C247.079 35.888 246.935 35.216 246.935 34.448C246.167 35.664 245.239 36.624 244.151 37.328C243.063 38 241.735 38.336 240.167 38.336ZM243.575 35.264C244.215 35.264 244.791 35.12 245.303 34.832C245.847 34.512 246.359 34 246.839 33.296V23.456C246.551 23.936 246.151 24.368 245.639 24.752C245.127 25.136 244.583 25.536 244.007 25.952C243.431 26.336 242.871 26.768 242.327 27.248C241.815 27.728 241.399 28.32 241.079 29.024C240.759 29.728 240.599 30.576 240.599 31.568C240.599 32.816 240.871 33.744 241.415 34.352C241.959 34.96 242.679 35.264 243.575 35.264Z" fill="#141414"/>
</svg>
